<?xml version="1.0" encoding="UTF-8" standalone="no"?>
<!-- Created with Inkscape (http://www.inkscape.org/) -->

<svg
   width="261.27979mm"
   height="145.43668mm"
   viewBox="0 0 261.27979 145.43668"
   version="1.1"
   id="svg6020"
   inkscape:version="1.1.1 (3bf5ae0d25, 2021-09-20)"
   sodipodi:docname="maleficent_shadow.svg"
   xmlns:inkscape="http://www.inkscape.org/namespaces/inkscape"
   xmlns:sodipodi="http://sodipodi.sourceforge.net/DTD/sodipodi-0.dtd"
   xmlns="http://www.w3.org/2000/svg"
   xmlns:svg="http://www.w3.org/2000/svg">
  <sodipodi:namedview
     id="namedview6022"
     pagecolor="#ffffff"
     bordercolor="#666666"
     borderopacity="1.0"
     inkscape:pageshadow="2"
     inkscape:pageopacity="0.0"
     inkscape:pagecheckerboard="0"
     inkscape:document-units="mm"
     showgrid="false"
     units="mm"
     fit-margin-top="0"
     fit-margin-left="0"
     fit-margin-right="0"
     fit-margin-bottom="0"
     inkscape:zoom="0.69664703"
     inkscape:cx="436.37594"
     inkscape:cy="284.21854"
     inkscape:window-width="1920"
     inkscape:window-height="986"
     inkscape:window-x="-11"
     inkscape:window-y="-11"
     inkscape:window-maximized="1"
     inkscape:current-layer="layer1" />
  <defs
     id="defs6017" />
  <g
     inkscape:label="Layer 1"
     inkscape:groupmode="layer"
     id="layer1"
     transform="translate(-20.898476,-60.96964)">
    <path
       style="display:inline;opacity:0.402685;mix-blend-mode:normal;fill:#000000;fill-opacity:0.504098;stroke:none;stroke-width:0.261458px;stroke-linecap:butt;stroke-linejoin:miter;stroke-opacity:1"
       d="m 49.796306,206.40632 c 0,0 9.1048,-6.68335 20.10643,-8.16854 0,0 -15.08473,-40.42127 -31.32041,-31.18123 -5.59765,3.18573 -17.68385,14.01168 -17.68385,14.01168 0,0 7.8932,-17.71579 17.0612,-27.14783 5.48018,-5.63801 19.04595,-13.91502 19.04595,-13.91502 0,0 -11.39288,-9.19892 -21.45236,-4.73561 0,0 4.18719,-5.13972 7.61768,-7.19203 5.20032,-3.11113 11.82278,-4.74411 18.12672,-6.18812 0,0 -4.82855,-2.62548 -11.13249,-1.96911 0,0 15.15629,-13.25865 36.34826,1.31274 0,0 8.58409,3.67566 0.80476,-3.0193 0,0 -0.26826,-4.59458 10.05947,-12.9961 l 1.47539,1.18146 21.996734,-31.11186 c 0,0 2.54841,-2.88801 -2.28015,-6.9575 h 5.36506 c 0,0 -0.13412,-6.4324 4.42614,-7.08878 0,0 8.44997,-2.10038 9.1206,5.38222 0,0 0.53652,5.90732 -5.09681,6.95752 l 0.80477,6.16985 c 0,0 -5.09681,-5.11966 -8.44995,-1.18146 l -21.32609,30.06167 2.14602,2.10038 c 0,0 -4.42617,7.87644 -2.14602,10.63317 2.28015,2.75675 8.78676,13.77671 20.25309,21.3976 9.43682,6.27203 18.38877,9.49015 24.67924,8.92662 0,0 2.7218,0.24003 7.6452,-3.67567 0,0 11.66899,6.43241 13.01025,-0.65637 0,0 3.35316,-5.38222 -28.0324,-21.92268 l 12.60787,3.80692 c 0,0 -3.21903,-2.88803 -7.51109,-4.46331 -4.29203,-1.57527 10.73012,2.10038 14.08329,4.33204 3.35315,2.23165 -6.16983,-6.82623 -11.40074,-8.27023 -5.23094,-1.44402 8.44994,0.65635 15.55865,7.61385 0,0 -11.53487,-13.12736 -7.77933,-16.54047 3.75553,-3.41311 4.02379,-16.01539 0.5365,-18.50961 0,0 8.31584,5.51351 5.76744,11.81464 -2.54841,6.30113 10.32772,12.33974 12.33963,12.33974 2.0119,0 8.98647,-3.15057 7.24282,-10.10808 -1.74364,-6.95752 -1.34125,-3.54439 1.60952,-11.55208 0,0 0,10.50188 3.88967,14.17756 3.88966,3.67565 -1.87777,13.52118 2.14602,17.06557 0,0 5.23092,-5.5135 6.5722,-5.5135 0,0 -6.30395,7.35134 -5.63331,7.87642 0.67062,0.52511 11.53486,-1.31272 13.94913,-1.9691 l -17.03404,17.06558 c 0,0 -4.0238,4.72585 2.41427,3.67566 0,0 5.90157,-1.83783 7.37695,-2.4942 l 14.35153,10.5019 c 0,0 0.67062,5.11966 33.53159,-11.94591 0,0 15.15629,-6.56368 23.47212,8.79534 0,0 -11.80312,-0.5251 -23.87448,6.95751 l 4.56027,8.66405 c 0,0 19.85071,7.08878 25.61815,19.82234 l 6.81489,17.18739 z"
       id="path555-7"
       sodipodi:nodetypes="ccscsccsccccccccccccccccsscccccssscscssscsccscccccccccccc" />
  </g>
</svg>
